<svg width="20" height="20" viewBox="0 0 20 20" fill="none" xmlns="http://www.w3.org/2000/svg">
<path d="M2.91719 17.0835C3.60885 17.7752 4.72552 17.7752 5.41719 17.0835L16.2505 6.2502C16.9422 5.55853 16.9422 4.44186 16.2505 3.7502C15.5589 3.05853 14.4422 3.05853 13.7505 3.7502L2.91719 14.5835C2.22552 15.2752 2.22552 16.3919 2.91719 17.0835Z" stroke="#3F434A" stroke-width="1.5" stroke-linecap="round" stroke-linejoin="round"/>
<path d="M15.0078 7.49121L12.5078 4.99121" stroke="#3F434A" stroke-width="1.5" stroke-linecap="round" stroke-linejoin="round"/>
<path d="M7.08398 2.03366L8.33398 1.66699L7.96732 2.91699L8.33398 4.16699L7.08398 3.80033L5.83398 4.16699L6.20065 2.91699L5.83398 1.66699L7.08398 2.03366Z" stroke="#3F434A" stroke-linecap="round" stroke-linejoin="round"/>
<path d="M3.75 7.03366L5 6.66699L4.63333 7.91699L5 9.16699L3.75 8.80033L2.5 9.16699L2.86667 7.91699L2.5 6.66699L3.75 7.03366Z" stroke="#3F434A" stroke-linecap="round" stroke-linejoin="round"/>
<path d="M16.25 11.1997L17.5 10.833L17.1333 12.083L17.5 13.333L16.25 12.9663L15 13.333L15.3667 12.083L15 10.833L16.25 11.1997Z" stroke="#3F434A" stroke-linecap="round" stroke-linejoin="round"/>
</svg>
