<svg width="48" height="48" viewBox="0 0 48 48" fill="none" xmlns="http://www.w3.org/2000/svg">
<rect width="48" height="48" rx="12" fill="#F2F1FE"/>
<path d="M20 14V17" stroke="#624CF5" stroke-width="1.5" stroke-miterlimit="10" stroke-linecap="round" stroke-linejoin="round"/>
<path d="M28 14V17" stroke="#624CF5" stroke-width="1.5" stroke-miterlimit="10" stroke-linecap="round" stroke-linejoin="round"/>
<path d="M15.5 21.0898H32.5" stroke="#624CF5" stroke-width="1.5" stroke-miterlimit="10" stroke-linecap="round" stroke-linejoin="round"/>
<path d="M33 20.5V29C33 32 31.5 34 28 34H20C16.5 34 15 32 15 29V20.5C15 17.5 16.5 15.5 20 15.5H28C31.5 15.5 33 17.5 33 20.5Z" stroke="#624CF5" stroke-width="1.5" stroke-miterlimit="10" stroke-linecap="round" stroke-linejoin="round"/>
<path d="M27.6937 25.7002H27.7027" stroke="#624CF5" stroke-width="2" stroke-linecap="round" stroke-linejoin="round"/>
<path d="M27.6937 28.7002H27.7027" stroke="#624CF5" stroke-width="2" stroke-linecap="round" stroke-linejoin="round"/>
<path d="M23.9945 25.7002H24.0035" stroke="#624CF5" stroke-width="2" stroke-linecap="round" stroke-linejoin="round"/>
<path d="M23.9945 28.7002H24.0035" stroke="#624CF5" stroke-width="2" stroke-linecap="round" stroke-linejoin="round"/>
<path d="M20.2953 25.7002H20.3043" stroke="#624CF5" stroke-width="2" stroke-linecap="round" stroke-linejoin="round"/>
<path d="M20.2953 28.7002H20.3043" stroke="#624CF5" stroke-width="2" stroke-linecap="round" stroke-linejoin="round"/>
</svg>
