<svg width="20" height="21" viewBox="0 0 20 21" fill="none" xmlns="http://www.w3.org/2000/svg">
<path d="M9.9974 2.16699C5.40573 2.16699 1.66406 5.90866 1.66406 10.5003C1.66406 15.092 5.40573 18.8337 9.9974 18.8337C14.5891 18.8337 18.3307 15.092 18.3307 10.5003C18.3307 5.90866 14.5891 2.16699 9.9974 2.16699ZM12.7974 12.417C13.0391 12.6587 13.0391 13.0587 12.7974 13.3003C12.6724 13.4253 12.5141 13.4837 12.3557 13.4837C12.1974 13.4837 12.0391 13.4253 11.9141 13.3003L9.9974 11.3837L8.08073 13.3003C7.95573 13.4253 7.7974 13.4837 7.63906 13.4837C7.48073 13.4837 7.3224 13.4253 7.1974 13.3003C6.95573 13.0587 6.95573 12.6587 7.1974 12.417L9.11406 10.5003L7.1974 8.58366C6.95573 8.34199 6.95573 7.94199 7.1974 7.70033C7.43906 7.45866 7.83906 7.45866 8.08073 7.70033L9.9974 9.61699L11.9141 7.70033C12.1557 7.45866 12.5557 7.45866 12.7974 7.70033C13.0391 7.94199 13.0391 8.34199 12.7974 8.58366L10.8807 10.5003L12.7974 12.417Z" fill="#292D32"/>
</svg>
