<svg width="40" height="40" viewBox="0 0 40 40" fill="none" xmlns="http://www.w3.org/2000/svg">
<rect width="40" height="40" rx="16" fill="#F7F7FD"/>
<path d="M27.3 15.9195V21.0695C27.3 24.1495 25.54 25.4695 22.9 25.4695H14.11C13.66 25.4695 13.23 25.4295 12.83 25.3395C12.58 25.2995 12.34 25.2295 12.12 25.1495C10.62 24.5895 9.70996 23.2895 9.70996 21.0695V15.9195C9.70996 12.8395 11.47 11.5195 14.11 11.5195H22.9C25.14 11.5195 26.75 12.4695 27.18 14.6395C27.25 15.0395 27.3 15.4495 27.3 15.9195Z" stroke="#624CF5" stroke-width="1.5" stroke-miterlimit="10" stroke-linecap="round" stroke-linejoin="round"/>
<path d="M30.3011 18.9196V24.0696C30.3011 27.1496 28.5411 28.4696 25.9011 28.4696H17.1111C16.3711 28.4696 15.7011 28.3697 15.1211 28.1497C13.9311 27.7097 13.1211 26.7997 12.8311 25.3397C13.2311 25.4297 13.6611 25.4696 14.1111 25.4696H22.9011C25.5411 25.4696 27.3011 24.1496 27.3011 21.0696V15.9196C27.3011 15.4496 27.2611 15.0296 27.1811 14.6396C29.0811 15.0396 30.3011 16.3796 30.3011 18.9196Z" stroke="#624CF5" stroke-width="1.5" stroke-miterlimit="10" stroke-linecap="round" stroke-linejoin="round"/>
<path d="M18.4984 21.1394C19.9564 21.1394 21.1384 19.9574 21.1384 18.4994C21.1384 17.0414 19.9564 15.8594 18.4984 15.8594C17.0404 15.8594 15.8584 17.0414 15.8584 18.4994C15.8584 19.9574 17.0404 21.1394 18.4984 21.1394Z" stroke="#624CF5" stroke-width="1.5" stroke-miterlimit="10" stroke-linecap="round" stroke-linejoin="round"/>
<path d="M12.78 16.2998V20.6998" stroke="#624CF5" stroke-width="1.5" stroke-miterlimit="10" stroke-linecap="round" stroke-linejoin="round"/>
<path d="M24.2217 16.2998V20.6998" stroke="#624CF5" stroke-width="1.5" stroke-miterlimit="10" stroke-linecap="round" stroke-linejoin="round"/>
</svg>
