<svg width="20" height="20" viewBox="0 0 20 20" fill="none" xmlns="http://www.w3.org/2000/svg">
<path d="M14.166 11.1673V13.6673C14.166 17.0007 12.8327 18.334 9.49935 18.334H6.33268C2.99935 18.334 1.66602 17.0007 1.66602 13.6673V10.5007C1.66602 7.16732 2.99935 5.83398 6.33268 5.83398H8.83268" stroke="#3F434A" stroke-width="1.5" stroke-linecap="round" stroke-linejoin="round"/>
<path d="M14.1673 11.1673H11.5007C9.50065 11.1673 8.83398 10.5007 8.83398 8.50065V5.83398L14.1673 11.1673Z" stroke="#3F434A" stroke-width="1.5" stroke-linecap="round" stroke-linejoin="round"/>
<path d="M9.66602 1.66602H12.9993" stroke="#3F434A" stroke-width="1.5" stroke-linecap="round" stroke-linejoin="round"/>
<path d="M5.83398 4.16602C5.83398 2.78268 6.95065 1.66602 8.33398 1.66602H10.5173" stroke="#3F434A" stroke-width="1.5" stroke-linecap="round" stroke-linejoin="round"/>
<path d="M18.3339 6.66602V11.8243C18.3339 13.116 17.2839 14.166 15.9922 14.166" stroke="#3F434A" stroke-width="1.5" stroke-linecap="round" stroke-linejoin="round"/>
<path d="M18.334 6.66602H15.834C13.959 6.66602 13.334 6.04102 13.334 4.16602V1.66602L18.334 6.66602Z" stroke="#3F434A" stroke-width="1.5" stroke-linecap="round" stroke-linejoin="round"/>
</svg>
