<svg width="32" height="32" viewBox="0 0 32 32" fill="none" xmlns="http://www.w3.org/2000/svg">
<rect width="32" height="32" rx="8" fill="#F7F7FD"/>
<path d="M21.759 18.2442C21.759 19.3192 22.6423 20.1942 23.7173 20.1942C23.7173 23.3192 22.934 24.1025 19.809 24.1025H11.9923C8.86732 24.1025 8.08398 23.3192 8.08398 20.1942V19.8109C9.15898 19.8109 10.0423 18.9275 10.0423 17.8525C10.0423 16.7775 9.15898 15.8942 8.08398 15.8942V15.5109C8.09232 12.3859 8.86732 11.6025 11.9923 11.6025H19.8007C22.9257 11.6025 23.709 12.3859 23.709 15.5109V16.2942C22.634 16.2942 21.759 17.1609 21.759 18.2442Z" stroke="#A29DAF" stroke-width="1.5" stroke-linecap="round" stroke-linejoin="round"/>
<path d="M19.5086 11.6024H11.9336L14.3753 9.16074C16.3669 7.16908 17.3669 7.16908 19.3586 9.16074L19.8586 9.66074C19.3336 10.1857 19.2086 10.9607 19.5086 11.6024Z" stroke="#A29DAF" stroke-width="1.5" stroke-linecap="round" stroke-linejoin="round"/>
<path d="M14.2324 11.6025L14.2324 24.1025" stroke="#A29DAF" stroke-width="1.5" stroke-linecap="round" stroke-linejoin="round" stroke-dasharray="5 5"/>
</svg>
