<svg width="40" height="40" viewBox="0 0 40 40" fill="none" xmlns="http://www.w3.org/2000/svg">
<path d="M0.5 8C0.5 3.85786 3.85786 0.5 8 0.5H32C36.1421 0.5 39.5 3.85786 39.5 8V32C39.5 36.1421 36.1421 39.5 32 39.5H8C3.85786 39.5 0.5 36.1421 0.5 32V8Z" fill="white"/>
<path d="M0.5 8C0.5 3.85786 3.85786 0.5 8 0.5H32C36.1421 0.5 39.5 3.85786 39.5 8V32C39.5 36.1421 36.1421 39.5 32 39.5H8C3.85786 39.5 0.5 36.1421 0.5 32V8Z" stroke="#ED4F59"/>
<path d="M13 16V26C13 28.2091 14.7909 30 17 30H23C25.2091 30 27 28.2091 27 26V16M22 19V25M18 19L18 25M24 13L22.5937 10.8906C22.2228 10.3342 21.5983 10 20.9296 10H19.0704C18.4017 10 17.7772 10.3342 17.4063 10.8906L16 13M24 13H16M24 13H29M16 13H11" stroke="#ED4F59" stroke-width="1.5" stroke-linecap="round" stroke-linejoin="round"/>
</svg>
