<svg width="24" height="24" viewBox="0 0 24 24" fill="none" xmlns="http://www.w3.org/2000/svg">
<path d="M11.1795 12.06C11.6695 12.54 12.3395 12.54 12.8295 12.06L19.1495 5.78L20.3195 4.61C19.8795 4.38 19.3895 4.25 18.8595 4.25H5.14946C4.61946 4.25 4.12945 4.38 3.68945 4.61L4.85946 5.78L11.1795 12.06Z" fill="#2A282B"/>
<path d="M8.92977 11.9394L3.66977 6.69937L2.56977 5.60938C2.20977 6.11937 2.00977 6.72937 2.00977 7.39937V16.5994C2.00977 17.1594 2.15977 17.6894 2.40977 18.1394C2.41977 18.1294 2.41977 18.1294 2.42977 18.1194L3.56977 17.0294L8.92977 11.9394Z" fill="#2A282B"/>
<path d="M14.0895 12.9199L13.8895 13.1199C13.3495 13.6499 12.6795 13.9199 11.9995 13.9199C11.3295 13.9199 10.6595 13.6499 10.1195 13.1199L9.98946 12.9899L4.58945 18.1499L3.46946 19.2099C3.45946 19.2199 3.44945 19.2299 3.43945 19.2299C3.92945 19.5599 4.50946 19.7499 5.14946 19.7499H18.8595C19.4895 19.7499 20.0795 19.5599 20.5695 19.2299L19.4495 18.1399L14.0895 12.9199Z" fill="#2A282B"/>
<path d="M21.4504 5.60938L20.3504 6.69937L15.1504 11.8594L20.4504 17.0294L21.6004 18.1494C21.8604 17.6994 22.0104 17.1594 22.0104 16.5994V7.39937C22.0104 6.72937 21.8104 6.11937 21.4504 5.60938Z" fill="#2A282B"/>
</svg>
