<svg width="24" height="24" viewBox="0 0 24 24" fill="none" xmlns="http://www.w3.org/2000/svg">
<path d="M22 6.86V17.14C22 19.82 19.82 22 17.14 22H15.79V15.41C15.79 15.13 16.02 14.91 16.29 14.91H17.76C18.01 14.91 18.22 14.72 18.25 14.47L18.48 12.75C18.52 12.45 18.29 12.18 17.99 12.18H16.29C16.02 12.18 15.79 11.96 15.79 11.68V10.46C15.79 10.06 15.87 9.74 16.03 9.5C16.23 9.26 16.59 9.14 17.11 9.14H18.06C18.33 9.14 18.56 8.91 18.56 8.64V7.18C18.56 6.92 18.37 6.7 18.12 6.68C17.64 6.63 17.08 6.61 16.47 6.61C15.39 6.61 14.55 6.93 13.91 7.57C13.27 8.21 12.99 9.06 12.99 10.18V11.68C12.99 11.96 12.76 12.18 12.49 12.18H11.04C10.77 12.18 10.54 12.41 10.54 12.68V14.41C10.54 14.68 10.77 14.91 11.04 14.91H12.49C12.76 14.91 12.99 15.13 12.99 15.41V22H6.86C4.18 22 2 19.82 2 17.14V6.86C2 4.18 4.18 2 6.86 2H17.14C19.82 2 22 4.18 22 6.86Z" fill="#2A282B"/>
</svg>
