<svg width="8" height="8" viewBox="0 0 8 8" fill="none" xmlns="http://www.w3.org/2000/svg">
<path d="M4.52404 1.33016L5.14404 2.58016C5.20404 2.70016 5.32404 2.79016 5.45404 2.81016L6.83404 3.01016C7.17404 3.06016 7.31404 3.48016 7.06404 3.72016L6.06404 4.69016C5.96404 4.78016 5.92404 4.92016 5.94404 5.06016L6.18404 6.43016C6.24404 6.77016 5.88404 7.03016 5.58404 6.87016L4.35404 6.22016C4.23404 6.16016 4.08404 6.16016 3.96404 6.22016L2.73404 6.87016C2.42404 7.03016 2.07404 6.77016 2.13404 6.43016L2.37404 5.06016C2.39404 4.92016 2.35404 4.79016 2.25404 4.69016L1.26404 3.72016C1.01404 3.48016 1.15404 3.06016 1.49404 3.01016L2.87404 2.81016C3.01404 2.79016 3.12404 2.71016 3.18404 2.58016L3.79404 1.33016C3.93404 1.02016 4.37404 1.02016 4.52404 1.33016Z" stroke="#A29DAF" stroke-width="1.5" stroke-linecap="round" stroke-linejoin="round"/>
</svg>
