<svg width="96" height="96" viewBox="0 0 96 96" fill="none" xmlns="http://www.w3.org/2000/svg">
<rect width="96" height="96" rx="48" fill="#8574F5"/>
<path d="M41.2624 44.8688C40.1131 42.5748 37.7405 41 35 41C31.134 41 28 44.134 28 48C28 51.866 31.134 55 35 55C37.7405 55 40.1131 53.4252 41.2624 51.1312M41.2624 44.8688C41.7344 45.811 42 46.8745 42 48C42 49.1255 41.7344 50.189 41.2624 51.1312M41.2624 44.8688L54.7376 38.1312M41.2624 51.1312L54.7376 57.8688M54.7376 38.1312C55.8869 40.4252 58.2595 42 61 42C64.866 42 68 38.866 68 35C68 31.134 64.866 28 61 28C57.134 28 54 31.134 54 35C54 36.1255 54.2656 37.189 54.7376 38.1312ZM54.7376 57.8688C54.2656 58.811 54 59.8745 54 61C54 64.866 57.134 68 61 68C64.866 68 68 64.866 68 61C68 57.134 64.866 54 61 54C58.2595 54 55.8869 55.5748 54.7376 57.8688Z" stroke="white" stroke-width="3" stroke-linecap="round"/>
</svg>
