<svg width="96" height="96" viewBox="0 0 96 96" fill="none" xmlns="http://www.w3.org/2000/svg">
<rect width="96" height="96" rx="48" fill="#8574F5"/>
<path d="M57.2758 44.2566C55.794 40.5883 52.1992 38 48 38C42.4772 38 38 42.4772 38 48C38 52.1992 40.5883 55.794 44.2566 57.2758M47.8311 67.9993C36.8632 67.9086 28 58.9893 28 48C28 36.9543 36.9543 28 48 28C58.9893 28 67.9086 36.8632 67.9993 47.8311M48.1146 50.8471L53.3399 66.5229C53.9964 68.4924 56.7821 68.4924 57.4386 66.5229L59.3681 60.7344C59.5831 60.0893 60.0893 59.5831 60.7344 59.3681L66.5229 57.4386C68.4924 56.7821 68.4924 53.9964 66.5229 53.3399L50.8471 48.1146C49.1583 47.5517 47.5517 49.1583 48.1146 50.8471Z" stroke="white" stroke-width="3" stroke-linecap="round" stroke-linejoin="round"/>
</svg>
