,q <svg width="96" height="96" viewBox="0 0 96 96" fill="none" xmlns="http://www.w3.org/2000/svg">
<rect width="96" height="96" rx="48" fill="#8574F5"/>
<path d="M56 64L60.2528 67.4023C60.6707 67.7366 61.2777 67.6826 61.6301 67.2799L68 60" stroke="white" stroke-width="3" stroke-linecap="round" stroke-linejoin="round"/>
<path d="M68 52V36H32C29.7909 36 28 37.7909 28 40V64C28 66.2091 29.7909 68 32 68H50" stroke="white" stroke-width="3" stroke-linecap="round" stroke-linejoin="round"/>
<path d="M68 32C68 29.7909 66.2091 28 64 28H44C41.7909 28 40 29.7909 40 32V36H68V32Z" stroke="white" stroke-width="3" stroke-linejoin="round"/>
<path d="M28 48L28 56L36 56C38.2091 56 40 54.2091 40 52V52C40 49.7909 38.2091 48 36 48L28 48Z" stroke="white" stroke-width="3" stroke-linejoin="round"/>
</svg>
