<svg width="20" height="20" viewBox="0 0 20 20" fill="none" xmlns="http://www.w3.org/2000/svg">
<path d="M18.7509 10.1941C18.7509 9.47471 18.6913 8.94971 18.5624 8.40527H10.1795V11.6525H15.1C15.0009 12.4594 14.4652 13.6747 13.2747 14.4913L13.258 14.6L15.9085 16.6123L16.0921 16.6303C17.7786 15.1039 18.7509 12.858 18.7509 10.1941Z" fill="#4285F4"/>
<path d="M10.1789 18.75C12.5896 18.75 14.6133 17.9722 16.0916 16.6305L13.2741 14.4916C12.5201 15.0068 11.5082 15.3666 10.1789 15.3666C7.81781 15.3666 5.81386 13.8402 5.09951 11.7305L4.9948 11.7392L2.23876 13.8295L2.20271 13.9277C3.67095 16.786 6.68681 18.75 10.1789 18.75Z" fill="#34A853"/>
<path d="M5.10003 11.7302C4.91155 11.1858 4.80246 10.6024 4.80246 9.99967C4.80246 9.39686 4.91155 8.81355 5.09012 8.26911L5.08512 8.15316L2.29453 6.0293L2.20323 6.07186C1.5981 7.25798 1.25087 8.58995 1.25087 9.99967C1.25087 11.4094 1.5981 12.7413 2.20323 13.9274L5.10003 11.7302Z" fill="#FBBC05"/>
<path d="M10.1789 4.63331C11.8555 4.63331 12.9864 5.34303 13.6313 5.93613L16.1511 3.525C14.6036 2.11528 12.5896 1.25 10.1789 1.25C6.68684 1.25 3.67095 3.21387 2.20271 6.07218L5.08961 8.26944C5.81388 6.15972 7.81784 4.63331 10.1789 4.63331Z" fill="#EB4335"/>
</svg>
