<svg width="25" height="24" viewBox="0 0 25 24" fill="none" xmlns="http://www.w3.org/2000/svg">
<path d="M17.495 4H7.495C3.665 4 2.595 4.92 2.505 8.5C4.435 8.5 5.995 10.07 5.995 12C5.995 13.93 4.435 15.49 2.505 15.5C2.595 19.08 3.665 20 7.495 20H17.495C21.495 20 22.495 19 22.495 15V9C22.495 5 21.495 4 17.495 4Z" stroke="#A29DAF" stroke-width="1.5" stroke-linecap="round" stroke-linejoin="round"/>
<path d="M9.49329 4V7.5" stroke="#A29DAF" stroke-width="1.5" stroke-linecap="round" stroke-linejoin="round"/>
<path d="M9.49329 16.5V20" stroke="#A29DAF" stroke-width="1.5" stroke-linecap="round" stroke-linejoin="round"/>
<path d="M15.525 9.33016L16.145 10.5802C16.205 10.7002 16.325 10.7902 16.455 10.8102L17.835 11.0102C18.175 11.0602 18.315 11.4802 18.065 11.7202L17.065 12.6902C16.965 12.7802 16.925 12.9202 16.945 13.0602L17.185 14.4302C17.245 14.7702 16.885 15.0302 16.585 14.8702L15.355 14.2202C15.235 14.1602 15.085 14.1602 14.965 14.2202L13.735 14.8702C13.425 15.0302 13.075 14.7702 13.135 14.4302L13.375 13.0602C13.395 12.9202 13.355 12.7902 13.255 12.6902L12.265 11.7202C12.015 11.4802 12.155 11.0602 12.495 11.0102L13.875 10.8102C14.015 10.7902 14.125 10.7102 14.185 10.5802L14.795 9.33016C14.935 9.02016 15.375 9.02016 15.525 9.33016Z" stroke="#A29DAF" stroke-width="1.5" stroke-linecap="round" stroke-linejoin="round"/>
</svg>
