<svg width="24" height="24" viewBox="0 0 24 24" fill="none" xmlns="http://www.w3.org/2000/svg">
<path d="M12 6.44043V9.77043" stroke="#A29DAF" stroke-width="1.5" stroke-miterlimit="10" stroke-linecap="round"/>
<path d="M11.9174 1C8.23736 1 5.25736 3.98 5.25736 7.66V9.76C5.25736 10.44 4.97736 11.46 4.62736 12.04L3.35736 14.16C2.57736 15.47 3.11736 16.93 4.55736 17.41C9.33736 19 14.5074 19 19.2874 17.41C20.6374 16.96 21.2174 15.38 20.4874 14.16L19.2174 12.04C18.8674 11.46 18.5874 10.43 18.5874 9.76V7.66C18.5774 4 15.5774 1 11.9174 1Z" stroke="#A29DAF" stroke-width="1.5" stroke-miterlimit="10" stroke-linecap="round"/>
<rect x="13" y="1" width="8" height="8" rx="4" fill="#F7F7FD"/>
<path d="M17 8C18.6569 8 20 6.65685 20 5C20 3.34315 18.6569 2 17 2C15.3431 2 14 3.34315 14 5C14 6.65685 15.3431 8 17 8Z" fill="#ED4F59"/>
<path d="M15.33 18.8203C15.33 20.6503 13.83 22.1503 12 22.1503C11.09 22.1503 10.25 21.7703 9.65001 21.1703C9.05001 20.5703 8.67001 19.7303 8.67001 18.8203" stroke="#A29DAF" stroke-width="1.5" stroke-miterlimit="10"/>
</svg>
