<svg width="24" height="24" viewBox="0 0 24 24" fill="none" xmlns="http://www.w3.org/2000/svg">
<path d="M11.9997 14.8197C13.5497 14.8197 14.8197 13.5497 14.8197 11.9997C14.8197 10.4497 13.5497 9.17969 11.9997 9.17969C10.4497 9.17969 9.17969 10.4497 9.17969 11.9997C9.17969 13.5497 10.4497 14.8197 11.9997 14.8197Z" fill="#2A282B"/>
<path d="M17.14 2H6.85999C4.17999 2 2 4.18 2 6.86V17.14C2 19.82 4.17999 22 6.85999 22H17.14C19.82 22 22 19.82 22 17.14V6.86C22 4.18 19.82 2 17.14 2ZM17.15 7.91C16.58 7.91 16.12 7.45 16.12 6.89C16.12 6.32 16.58 5.86 17.15 5.86C17.71 5.86 18.17 6.32 18.17 6.89C18.17 7.45 17.71 7.91 17.15 7.91ZM12 7.68C14.38 7.68 16.32 9.62 16.32 12C16.32 14.38 14.38 16.32 12 16.32C9.62 16.32 7.67999 14.38 7.67999 12C7.67999 9.62 9.62 7.68 12 7.68Z" fill="#2A282B"/>
</svg>
