<svg width="24" height="24" viewBox="0 0 24 24" fill="none" xmlns="http://www.w3.org/2000/svg">
<path d="M9.67 6.59961H19" stroke="#A29DAF" stroke-width="1.5" stroke-linecap="round" stroke-linejoin="round"/>
<path d="M9.67 12H19" stroke="#A29DAF" stroke-width="1.5" stroke-linecap="round" stroke-linejoin="round"/>
<path d="M5.58 7.95C6.31 7.95 6.91 7.34 6.91 6.6C6.91 5.86 6.31 5.25 5.58 5.25C4.84 5.25 4.25 5.86 4.25 6.6C4.25 7.34 4.85 7.95 5.58 7.95Z" fill="#A29DAF"/>
<path d="M5.58 10.6504C4.84 10.6504 4.25 11.2604 4.25 12.0004C4.25 12.7404 4.85 13.3504 5.58 13.3504C6.31 13.3504 6.91 12.7404 6.91 12.0004C6.91 11.2604 6.32 10.6504 5.58 10.6504Z" fill="#A29DAF"/>
<path d="M5.58 16.0508C4.84 16.0508 4.25 16.6608 4.25 17.4008C4.25 18.1408 4.85 18.7508 5.58 18.7508C6.31 18.7508 6.91 18.1408 6.91 17.4008C6.92 16.6608 6.32 16.0508 5.58 16.0508Z" fill="#A29DAF"/>
<path d="M9.67 17.4004H19" stroke="#A29DAF" stroke-width="1.5" stroke-linecap="round" stroke-linejoin="round"/>
</svg>
