<svg width="20" height="20" viewBox="0 0 20 20" fill="none" xmlns="http://www.w3.org/2000/svg">
<path d="M5 16.666C6.38071 16.666 7.5 15.5467 7.5 14.166C7.5 12.7853 6.38071 11.666 5 11.666C3.61929 11.666 2.5 12.7853 2.5 14.166C2.5 15.5467 3.61929 16.666 5 16.666Z" stroke="#3F434A" stroke-width="1.5" stroke-linecap="round" stroke-linejoin="round"/>
<path d="M13.334 16.666C14.7147 16.666 15.834 15.5467 15.834 14.166C15.834 12.7853 14.7147 11.666 13.334 11.666C11.9533 11.666 10.834 12.7853 10.834 14.166C10.834 15.5467 11.9533 16.666 13.334 16.666Z" stroke="#3F434A" stroke-width="1.5" stroke-linecap="round" stroke-linejoin="round"/>
<path d="M7.5 14.1663V3.33301H15.8333V14.1663M7.5 6.66634H15.8333" stroke="#3F434A" stroke-width="1.5" stroke-linecap="round" stroke-linejoin="round"/>
</svg>
