<svg width="24" height="24" viewBox="0 0 24 24" fill="none" xmlns="http://www.w3.org/2000/svg">
<path d="M11.8001 12.4595C13.1642 12.4595 14.2701 11.3537 14.2701 9.98953C14.2701 8.62539 13.1642 7.51953 11.8001 7.51953C10.4359 7.51953 9.33008 8.62539 9.33008 9.98953C9.33008 11.3537 10.4359 12.4595 11.8001 12.4595Z" stroke="#A29DAF" stroke-width="1.5" stroke-linecap="round" stroke-linejoin="round"/>
<path d="M6.82031 19.2899V17.8799C6.82031 16.2399 8.1503 14.9199 9.7803 14.9199H14.2103C15.8503 14.9199 17.1703 16.2499 17.1703 17.8799V19.2899" stroke="#A29DAF" stroke-width="1.5" stroke-linecap="round" stroke-linejoin="round"/>
<path d="M12 21.25C17.1086 21.25 21.25 17.1086 21.25 12C21.25 6.89137 17.1086 2.75 12 2.75C6.89137 2.75 2.75 6.89137 2.75 12C2.75 17.1086 6.89137 21.25 12 21.25Z" stroke="#A29DAF" stroke-width="1.5" stroke-linecap="round" stroke-linejoin="round"/>
</svg>
