<svg width="64" height="64" viewBox="0 0 64 64" fill="none" xmlns="http://www.w3.org/2000/svg">
<path fill-rule="evenodd" clip-rule="evenodd" d="M17.3333 18.6667H22.6667C25.6122 18.6667 28 21.0546 28 24.0001V33.4077C28 34.2357 27.8072 35.0523 27.4369 35.7929L23.6555 43.3557C23.0495 44.5678 21.8107 45.3334 20.4555 45.3334C17.7959 45.3334 16.0661 42.5345 17.2555 40.1557L20 34.6667H17.3333C14.3878 34.6667 12 32.2789 12 29.3334V24.0001C12 21.0546 14.3878 18.6667 17.3333 18.6667ZM41.3333 18.6667H46.6667C49.6122 18.6667 52 21.0546 52 24.0001V33.4077C52 34.2357 51.8072 35.0523 51.4369 35.7929L47.6555 43.3557C47.0495 44.5678 45.8107 45.3334 44.4555 45.3334C41.7959 45.3334 40.0661 42.5345 41.2555 40.1557L44 34.6667H41.3333C38.3878 34.6667 36 32.2789 36 29.3334V24.0001C36 21.0546 38.3878 18.6667 41.3333 18.6667Z" fill="#624CF5"/>
</svg>
