<svg width="22" height="22" viewBox="0 0 22 22" fill="none" xmlns="http://www.w3.org/2000/svg">
<path d="M7.63118 9.43441C7.05656 8.2874 5.87023 7.5 4.5 7.5C2.567 7.5 1 9.067 1 11C1 12.933 2.567 14.5 4.5 14.5C5.87023 14.5 7.05656 13.7126 7.63118 12.5656M7.63118 9.43441C7.86718 9.90549 8 10.4372 8 11C8 11.5628 7.86718 12.0945 7.63118 12.5656M7.63118 9.43441L14.3688 6.06559M7.63118 12.5656L14.3688 15.9344M14.3688 6.06559C14.9434 7.2126 16.1298 8 17.5 8C19.433 8 21 6.433 21 4.5C21 2.567 19.433 1 17.5 1C15.567 1 14 2.567 14 4.5C14 5.06276 14.1328 5.59451 14.3688 6.06559ZM14.3688 15.9344C14.1328 16.4055 14 16.9372 14 17.5C14 19.433 15.567 21 17.5 21C19.433 21 21 19.433 21 17.5C21 15.567 19.433 14 17.5 14C16.1298 14 14.9434 14.7874 14.3688 15.9344Z" stroke="#6B6478" stroke-width="1.5" stroke-linecap="round"/>
</svg>
