<svg width="16" height="16" viewBox="0 0 16 16" fill="none" xmlns="http://www.w3.org/2000/svg">
<path d="M12.606 9.79576C12.606 10.6558 13.3127 11.3558 14.1727 11.3558C14.1727 13.8558 13.546 14.4824 11.046 14.4824H4.79268C2.29268 14.4824 1.66602 13.8558 1.66602 11.3558V11.0491C2.52602 11.0491 3.23268 10.3424 3.23268 9.48242C3.23268 8.62242 2.52602 7.91576 1.66602 7.91576V7.60909C1.67268 5.10909 2.29268 4.48242 4.79268 4.48242H11.0393C13.5393 4.48242 14.166 5.10909 14.166 7.60909V8.23576C13.306 8.23576 12.606 8.92909 12.606 9.79576Z" stroke="#A29DAF" stroke-width="1.5" stroke-linecap="round" stroke-linejoin="round"/>
<path d="M10.808 4.48232H4.74805L6.70138 2.52898C8.29471 0.935651 9.09471 0.935651 10.688 2.52898L11.088 2.92898C10.668 3.34898 10.568 3.96898 10.808 4.48232Z" stroke="#A29DAF" stroke-width="1.5" stroke-linecap="round" stroke-linejoin="round"/>
<path d="M6.58594 4.48242L6.58594 14.4824" stroke="#A29DAF" stroke-width="1.5" stroke-linecap="round" stroke-linejoin="round" stroke-dasharray="5 5"/>
</svg>
