<svg width="18" height="18" viewBox="0 0 18 18" fill="none" xmlns="http://www.w3.org/2000/svg">
<path d="M9 16.5C13.1421 16.5 16.5 13.1421 16.5 9C16.5 4.85786 13.1421 1.5 9 1.5C4.85786 1.5 1.5 4.85786 1.5 9C1.5 13.1421 4.85786 16.5 9 16.5Z" stroke="#3F434A" stroke-width="1.5" stroke-linecap="round" stroke-linejoin="round"/>
<path d="M3.70833 3.70833L14.2917 14.2917M3.70833 14.2917L14.2917 3.70833M9 1.5C9 3.48912 9.79018 5.39678 11.1967 6.8033C12.6032 8.20982 14.5109 9 16.5 9M1.5 9C3.48912 9 5.39678 9.79018 6.8033 11.1967C8.20982 12.6032 9 14.5109 9 16.5" stroke="#3F434A" stroke-width="1.5" stroke-linecap="round" stroke-linejoin="round"/>
</svg>
