<svg width="20" height="20" viewBox="0 0 20 20" fill="none" xmlns="http://www.w3.org/2000/svg">
<path d="M15.7583 12.2432C15.7583 13.3182 16.6417 14.1932 17.7167 14.1932C17.7167 17.3182 16.9333 18.1016 13.8083 18.1016H5.99167C2.86667 18.1016 2.08333 17.3182 2.08333 14.1932V13.8099C3.15833 13.8099 4.04167 12.9266 4.04167 11.8516C4.04167 10.7766 3.15833 9.89323 2.08333 9.89323V9.5099C2.09167 6.3849 2.86667 5.60156 5.99167 5.60156H13.8C16.925 5.60156 17.7083 6.3849 17.7083 9.5099V10.2932C16.6333 10.2932 15.7583 11.1599 15.7583 12.2432Z" stroke="#A29DAF" stroke-width="1.5" stroke-linecap="round" stroke-linejoin="round"/>
<path d="M13.5092 5.60143H5.93424L8.37591 3.15977C10.3676 1.1681 11.3676 1.1681 13.3592 3.15977L13.8592 3.65977C13.3342 4.18477 13.2092 4.95977 13.5092 5.60143Z" stroke="#A29DAF" stroke-width="1.5" stroke-linecap="round" stroke-linejoin="round"/>
<path d="M8.23242 5.60156L8.23242 18.1016" stroke="#A29DAF" stroke-width="1.5" stroke-linecap="round" stroke-linejoin="round" stroke-dasharray="5 5"/>
</svg>
