<svg width="24" height="24" viewBox="0 0 24 24" fill="none" xmlns="http://www.w3.org/2000/svg">
<path d="M17.14 2H6.86C4.18 2 2 4.18 2 6.86V17.14C2 19.82 4.18 22 6.86 22H17.14C19.82 22 22 19.82 22 17.14V6.86C22 4.18 19.82 2 17.14 2ZM16.79 8.87C17.41 11.31 16.72 13.87 14.96 15.44C12.7 17.46 9.03 17.55 6.34 15.45C6.54 15.48 6.72001 15.49 6.88 15.48C8.15 15.43 9.01999 14.42 9.28999 14.08C8.81999 13.67 8.09 12.95 7.58 11.84C6.86 10.3 6.93 8.85 7.05 8.03C7.08 7.87 7.27999 7.81 7.39999 7.94C7.76999 8.36 8.37 8.93 9.25 9.34C10.2 9.78 11.06 9.86 11.55 9.86C11.52 8.67 12.23 7.6 13.3 7.19C14.24 6.82 15.33 7.03 16.1 7.73C16.62 7.71 17.14 7.69999 17.66 7.67999C17.37 8.07999 17.08 8.47 16.79 8.87Z" fill="#2A282B"/>
</svg>
