<svg width="24" height="24" viewBox="0 0 24 24" fill="none" xmlns="http://www.w3.org/2000/svg">
<path d="M15.286 4C13.1821 4 11.4766 5.79086 11.4766 8C11.4766 8.33382 11.5156 8.65809 11.5889 8.96808C9.56602 8.96808 6.51905 8.55908 3.97435 6.00961C3.63596 5.67059 3.01199 5.89726 3.03546 6.37567C3.41259 14.0627 6.70468 16.3049 8.40001 16.4444C7.30526 17.5257 5.71501 18.3791 4.1148 18.7622C3.69247 18.8633 3.58814 19.3256 4.00111 19.4599C5.14614 19.8323 6.78507 19.9758 7.66726 20C13.9081 20 18.9805 14.7471 19.0934 8.22229C19.9128 7.68945 20.4376 6.5325 20.7325 5.71291C20.8043 5.5133 20.4772 5.28073 20.2814 5.36226C19.6693 5.61708 18.8922 5.67749 18.2303 5.46181C17.5317 4.56927 16.4721 4 15.286 4Z" fill="#2A282B"/>
</svg>
